<svg width="14" height="14" viewBox="0 0 14 14" fill="none" xmlns="http://www.w3.org/2000/svg">
<path d="M6.91278 13.1966C6.01993 13.1966 5.18033 13.0287 4.39396 12.6928C3.6117 12.357 2.92158 11.8921 2.32362 11.2983C1.72975 10.7003 1.26284 10.0102 0.922905 9.22791C0.587062 8.44564 0.421188 7.60604 0.425284 6.70909C0.42938 5.81215 0.599349 4.97254 0.935192 4.19027C1.27513 3.408 1.74203 2.71993 2.3359 2.12607C2.92977 1.5281 3.61784 1.0612 4.40011 0.725355C5.18237 0.389513 6.01993 0.221591 6.91278 0.221591C7.80973 0.221591 8.64934 0.389513 9.43161 0.725355C10.218 1.0612 10.906 1.5281 11.4958 2.12607C12.0897 2.71993 12.5545 3.408 12.8904 4.19027C13.2262 4.97254 13.3962 5.81215 13.4003 6.70909C13.4044 7.60604 13.2385 8.44564 12.9027 9.22791C12.5668 10.0102 12.102 10.7003 11.5081 11.2983C10.9142 11.8921 10.2241 12.357 9.43775 12.6928C8.65138 13.0287 7.80973 13.1966 6.91278 13.1966Z" fill="white" fill-opacity="0.9"/>
</svg>
