<svg width="32" height="32" viewBox="0 0 32 32" fill="none" xmlns="http://www.w3.org/2000/svg">
<path d="M16 2.8C20.2 2.8 20.8 2.8 22.4 2.8C24 2.8 24.8 3.2 25.4 3.4C26.2 3.6 26.6 4 27.2 4.6C27.8 5.2 28.2 5.6 28.4 6.4C28.6 7 28.8 7.8 29 9.4C29 11 29 11.6 29 15.8C29 20 29 20.6 29 22.2C29 23.8 28.6 24.6 28.4 25.2C28.2 26 27.8 26.4 27.2 27C26.6 27.6 26.2 28 25.4 28.2C24.8 28.4 24 28.6 22.4 28.8C20.8 28.8 20.2 28.8 16 28.8C11.8 28.8 11.2 28.8 9.6 28.8C8 28.8 7.2 28.4 6.6 28.2C5.8 28 5.4 27.6 4.8 27C4.2 26.4 3.8 26 3.6 25.2C3.4 24.6 3.2 23.8 3 22.2C3 20.6 3 20 3 15.8C3 11.6 3 11 3 9.4C3 7.8 3.4 7 3.6 6.4C3.8 5.6 4.2 5.2 4.8 4.6C5.4 4 5.8 3.6 6.6 3.4C7.2 3.2 8 3 9.6 2.8C11.2 2.8 11.8 2.8 16 2.8ZM16 0C11.6 0 11.2 0 9.4 0C7.6 0 6.6 0.4 5.6 0.8C4.6 1.2 3.6 1.8 2.8 2.6C1.8 3.6 1.2 4.4 0.8 5.6C0.4 6.6 0.2 7.8 0 9.4C0 11.2 0 11.6 0 16C0 20.4 0 20.8 0 22.6C0 24.4 0.4 25.4 0.8 26.4C1.2 27.4 1.8 28.4 2.6 29.2C3.4 30 4.4 30.6 5.4 31C6.4 31.4 7.6 31.6 9.2 31.8C11 31.8 11.4 31.8 15.8 31.8C20.2 31.8 20.6 31.8 22.4 31.8C24.2 31.8 25.2 31.4 26.2 31C27.2 30.6 28.2 30 29 29.2C29.8 28.4 30.4 27.4 30.8 26.4C31.2 25.4 31.4 24.2 31.6 22.6C31.6 20.8 31.6 20.4 31.6 16C31.6 11.6 31.6 11.2 31.6 9.4C31.6 7.6 31.2 6.6 30.8 5.6C30.4 4.6 29.8 3.6 29 2.8C28.2 2 27.2 1.4 26.2 1C25.2 0.6 24 0.4 22.4 0.2C20.8 -1.93715e-07 20.4 0 16 0Z" fill="white" fill-opacity="0.9"/>
<path d="M16 7.8C11.4 7.8 7.80005 11.4 7.80005 16C7.80005 20.6 11.4 24.2 16 24.2C20.6 24.2 24.2001 20.6 24.2001 16C24.2001 11.4 20.6 7.8 16 7.8ZM16 21.4C13 21.4 10.6 19 10.6 16C10.6 13 13 10.6 16 10.6C19 10.6 21.4001 13 21.4001 16C21.4001 19 19 21.4 16 21.4Z" fill="white" fill-opacity="0.9"/>
<path d="M26.4 7.4C26.4 8.4 25.6 9.4 24.4 9.4C23.2 9.4 22.4 8.6 22.4 7.4C22.4 6.2 23.2 5.4 24.4 5.4C25.6 5.4 26.4 6.4 26.4 7.4Z" fill="white" fill-opacity="0.9"/>
</svg>
